<mxfile host="app.diagrams.net" modified="2022-11-24T08:37:49.276Z" agent="5.0 (Macintosh; Intel Mac OS X 10_15_7) AppleWebKit/537.36 (KHTML, like Gecko) Chrome/106.0.0.0 Safari/537.36" etag="7ROlt-8IB8SD7lQO0veO" version="20.5.3" type="github">
  <diagram id="7JfQtgM287IBN1vyDeZi" name="第 1 页">
    <mxGraphModel dx="2703" dy="1591" grid="1" gridSize="10" guides="1" tooltips="1" connect="1" arrows="1" fold="1" page="1" pageScale="1" pageWidth="827" pageHeight="1169" math="0" shadow="0">
      <root>
        <mxCell id="0" />
        <mxCell id="1" parent="0" />
        <mxCell id="Yrk2esqF26IQwSNQLnqM-48" value="" style="endArrow=classic;html=1;rounded=0;fontFamily=Times New Roman;fontSize=22;exitX=0.5;exitY=1;exitDx=0;exitDy=0;entryX=0.5;entryY=0;entryDx=0;entryDy=0;strokeWidth=15;fillColor=#1ba1e2;strokeColor=#006EAF;" parent="1" source="Yrk2esqF26IQwSNQLnqM-1" target="Yrk2esqF26IQwSNQLnqM-47" edge="1">
          <mxGeometry width="50" height="50" relative="1" as="geometry">
            <mxPoint x="390" y="200" as="sourcePoint" />
            <mxPoint x="440" y="150" as="targetPoint" />
          </mxGeometry>
        </mxCell>
        <mxCell id="Yrk2esqF26IQwSNQLnqM-8" value="" style="rounded=0;whiteSpace=wrap;html=1;fontFamily=Times New Roman;fontSize=22;fillColor=#e8e8e0;" parent="1" vertex="1">
          <mxGeometry x="220" y="320" width="230" height="160" as="geometry" />
        </mxCell>
        <mxCell id="Yrk2esqF26IQwSNQLnqM-1" value="&lt;h5 style=&quot;font-size: 22px;&quot;&gt;&lt;font style=&quot;font-size: 22px;&quot;&gt;Input&lt;/font&gt;&lt;/h5&gt;" style="rounded=0;whiteSpace=wrap;html=1;fontFamily=Times New Roman;fontSize=22;" parent="1" vertex="1">
          <mxGeometry x="240" y="120" width="190" height="40" as="geometry" />
        </mxCell>
        <mxCell id="Yrk2esqF26IQwSNQLnqM-2" value="&lt;h5 style=&quot;font-size: 22px;&quot;&gt;&lt;font style=&quot;font-size: 22px;&quot;&gt;&lt;span style=&quot;font-size: 22px;&quot;&gt;Conv&lt;/span&gt;&lt;/font&gt;&lt;/h5&gt;" style="rounded=0;whiteSpace=wrap;html=1;fillColor=#fff2cc;strokeColor=#d6b656;fontFamily=Times New Roman;fontSize=22;" parent="1" vertex="1">
          <mxGeometry x="240" y="170" width="190" height="40" as="geometry" />
        </mxCell>
        <mxCell id="Yrk2esqF26IQwSNQLnqM-3" value="&lt;h5 style=&quot;font-size: 22px;&quot;&gt;&lt;font style=&quot;font-size: 22px;&quot;&gt;IntanceNorm&lt;/font&gt;&lt;/h5&gt;" style="rounded=0;whiteSpace=wrap;html=1;fillColor=#c0a878;fontFamily=Times New Roman;fontSize=22;" parent="1" vertex="1">
          <mxGeometry x="240" y="220" width="190" height="40" as="geometry" />
        </mxCell>
        <mxCell id="Yrk2esqF26IQwSNQLnqM-4" value="&lt;font style=&quot;font-size: 22px;&quot;&gt;&lt;b style=&quot;font-size: 22px;&quot;&gt;Relu&lt;/b&gt;&lt;/font&gt;" style="rounded=0;whiteSpace=wrap;html=1;fillColor=#767676;fontFamily=Times New Roman;fontSize=22;" parent="1" vertex="1">
          <mxGeometry x="240" y="270" width="190" height="40" as="geometry" />
        </mxCell>
        <mxCell id="Yrk2esqF26IQwSNQLnqM-5" value="&lt;h5 style=&quot;font-size: 22px;&quot;&gt;&lt;font style=&quot;font-size: 22px;&quot;&gt;&lt;span style=&quot;font-size: 22px;&quot;&gt;Conv&lt;/span&gt;&lt;/font&gt;&lt;/h5&gt;" style="rounded=0;whiteSpace=wrap;html=1;fillColor=#fff2cc;strokeColor=#d6b656;fontFamily=Times New Roman;fontSize=22;" parent="1" vertex="1">
          <mxGeometry x="240" y="330" width="190" height="40" as="geometry" />
        </mxCell>
        <mxCell id="Yrk2esqF26IQwSNQLnqM-6" value="&lt;h5 style=&quot;font-size: 22px;&quot;&gt;&lt;font style=&quot;font-size: 22px;&quot;&gt;IntanceNorm&lt;/font&gt;&lt;/h5&gt;" style="rounded=0;whiteSpace=wrap;html=1;fillColor=#C0A878;fontFamily=Times New Roman;fontSize=22;" parent="1" vertex="1">
          <mxGeometry x="240" y="380" width="190" height="40" as="geometry" />
        </mxCell>
        <mxCell id="Yrk2esqF26IQwSNQLnqM-7" value="&lt;font style=&quot;font-size: 22px;&quot;&gt;&lt;b style=&quot;font-size: 22px;&quot;&gt;Relu&lt;/b&gt;&lt;/font&gt;" style="rounded=0;whiteSpace=wrap;html=1;fillColor=#767676;fontFamily=Times New Roman;fontSize=22;" parent="1" vertex="1">
          <mxGeometry x="240" y="430" width="190" height="40" as="geometry" />
        </mxCell>
        <mxCell id="Yrk2esqF26IQwSNQLnqM-9" value="" style="rounded=0;whiteSpace=wrap;html=1;fontFamily=Times New Roman;fontSize=22;fillColor=#E8E8E0;" parent="1" vertex="1">
          <mxGeometry x="220" y="490" width="230" height="100" as="geometry" />
        </mxCell>
        <mxCell id="Yrk2esqF26IQwSNQLnqM-12" value="" style="rounded=0;whiteSpace=wrap;html=1;fillColor=#C0A878;fontFamily=Times New Roman;fontSize=22;" parent="1" vertex="1">
          <mxGeometry x="240" y="530" width="190" height="15.5" as="geometry" />
        </mxCell>
        <mxCell id="Yrk2esqF26IQwSNQLnqM-14" value="" style="rounded=0;whiteSpace=wrap;html=1;fillColor=#fff2cc;strokeColor=#d6b656;fontFamily=Times New Roman;fontSize=22;" parent="1" vertex="1">
          <mxGeometry x="240" y="500" width="190" height="15.5" as="geometry" />
        </mxCell>
        <mxCell id="Yrk2esqF26IQwSNQLnqM-15" value="" style="rounded=0;whiteSpace=wrap;html=1;fillColor=#767676;fontFamily=Times New Roman;fontSize=22;" parent="1" vertex="1">
          <mxGeometry x="240" y="560" width="190" height="15.5" as="geometry" />
        </mxCell>
        <mxCell id="Yrk2esqF26IQwSNQLnqM-16" value="" style="rounded=0;whiteSpace=wrap;html=1;fontFamily=Times New Roman;fontSize=22;fillColor=#d6e0e1;" parent="1" vertex="1">
          <mxGeometry x="220" y="600" width="230" height="310" as="geometry" />
        </mxCell>
        <mxCell id="Yrk2esqF26IQwSNQLnqM-17" value="&lt;h5 style=&quot;font-size: 22px;&quot;&gt;&lt;font style=&quot;font-size: 22px;&quot;&gt;&lt;span style=&quot;font-size: 22px;&quot;&gt;Conv&lt;/span&gt;&lt;/font&gt;&lt;/h5&gt;" style="rounded=0;whiteSpace=wrap;html=1;fillColor=#fff2cc;strokeColor=#d6b656;fontFamily=Times New Roman;fontSize=22;" parent="1" vertex="1">
          <mxGeometry x="240" y="610" width="190" height="40" as="geometry" />
        </mxCell>
        <mxCell id="Yrk2esqF26IQwSNQLnqM-18" value="&lt;h5 style=&quot;font-size: 22px;&quot;&gt;&lt;font style=&quot;font-size: 22px;&quot;&gt;IntanceNorm&lt;/font&gt;&lt;/h5&gt;" style="rounded=0;whiteSpace=wrap;html=1;fillColor=#C0A878;fontFamily=Times New Roman;fontSize=22;" parent="1" vertex="1">
          <mxGeometry x="240" y="660" width="190" height="40" as="geometry" />
        </mxCell>
        <mxCell id="Yrk2esqF26IQwSNQLnqM-19" value="&lt;font style=&quot;font-size: 22px;&quot;&gt;&lt;b style=&quot;font-size: 22px;&quot;&gt;Relu&lt;/b&gt;&lt;/font&gt;" style="rounded=0;whiteSpace=wrap;html=1;fillColor=#767676;fontFamily=Times New Roman;fontSize=22;" parent="1" vertex="1">
          <mxGeometry x="240" y="710" width="190" height="40" as="geometry" />
        </mxCell>
        <mxCell id="Yrk2esqF26IQwSNQLnqM-20" value="&lt;h5 style=&quot;font-size: 22px;&quot;&gt;&lt;font style=&quot;font-size: 22px;&quot;&gt;&lt;span style=&quot;font-size: 22px;&quot;&gt;Conv&lt;/span&gt;&lt;/font&gt;&lt;/h5&gt;" style="rounded=0;whiteSpace=wrap;html=1;fillColor=#fff2cc;strokeColor=#d6b656;fontFamily=Times New Roman;fontSize=22;" parent="1" vertex="1">
          <mxGeometry x="240" y="760" width="190" height="40" as="geometry" />
        </mxCell>
        <mxCell id="Yrk2esqF26IQwSNQLnqM-21" value="&lt;h5 style=&quot;font-size: 22px;&quot;&gt;&lt;font style=&quot;font-size: 22px;&quot;&gt;IntanceNorm&lt;/font&gt;&lt;/h5&gt;" style="rounded=0;whiteSpace=wrap;html=1;fillColor=#C0A878;fontFamily=Times New Roman;fontSize=22;" parent="1" vertex="1">
          <mxGeometry x="240" y="810" width="190" height="40" as="geometry" />
        </mxCell>
        <mxCell id="Yrk2esqF26IQwSNQLnqM-22" value="" style="shape=orEllipse;perimeter=ellipsePerimeter;whiteSpace=wrap;html=1;backgroundOutline=1;fontFamily=Times New Roman;fontSize=22;" parent="1" vertex="1">
          <mxGeometry x="310" y="860" width="40" height="40" as="geometry" />
        </mxCell>
        <mxCell id="Yrk2esqF26IQwSNQLnqM-30" value="" style="rounded=0;whiteSpace=wrap;html=1;fontFamily=Times New Roman;fontSize=22;fillColor=#D6E0E1;" parent="1" vertex="1">
          <mxGeometry x="220" y="950" width="230" height="210" as="geometry" />
        </mxCell>
        <mxCell id="Yrk2esqF26IQwSNQLnqM-31" value="" style="rounded=0;whiteSpace=wrap;html=1;fillColor=#C0A878;fontFamily=Times New Roman;fontSize=22;" parent="1" vertex="1">
          <mxGeometry x="240" y="990" width="190" height="15.5" as="geometry" />
        </mxCell>
        <mxCell id="Yrk2esqF26IQwSNQLnqM-32" value="" style="rounded=0;whiteSpace=wrap;html=1;fillColor=#fff2cc;strokeColor=#d6b656;fontFamily=Times New Roman;fontSize=22;" parent="1" vertex="1">
          <mxGeometry x="240" y="960" width="190" height="15.5" as="geometry" />
        </mxCell>
        <mxCell id="Yrk2esqF26IQwSNQLnqM-33" value="" style="rounded=0;whiteSpace=wrap;html=1;fillColor=#767676;fontFamily=Times New Roman;fontSize=22;" parent="1" vertex="1">
          <mxGeometry x="240" y="1020" width="190" height="15.5" as="geometry" />
        </mxCell>
        <mxCell id="Yrk2esqF26IQwSNQLnqM-34" value="" style="rounded=0;whiteSpace=wrap;html=1;fillColor=#fff2cc;strokeColor=#d6b656;fontFamily=Times New Roman;fontSize=22;" parent="1" vertex="1">
          <mxGeometry x="240" y="1050" width="190" height="15.5" as="geometry" />
        </mxCell>
        <mxCell id="Yrk2esqF26IQwSNQLnqM-35" value="" style="rounded=0;whiteSpace=wrap;html=1;fillColor=#C0A878;fontFamily=Times New Roman;fontSize=22;" parent="1" vertex="1">
          <mxGeometry x="240" y="1080" width="190" height="15.5" as="geometry" />
        </mxCell>
        <mxCell id="Yrk2esqF26IQwSNQLnqM-36" value="" style="shape=orEllipse;perimeter=ellipsePerimeter;whiteSpace=wrap;html=1;backgroundOutline=1;fontFamily=Times New Roman;fontSize=22;" parent="1" vertex="1">
          <mxGeometry x="315" y="1110" width="40" height="40" as="geometry" />
        </mxCell>
        <mxCell id="Yrk2esqF26IQwSNQLnqM-37" value="" style="rounded=0;whiteSpace=wrap;html=1;fontFamily=Times New Roman;fontSize=22;fillColor=#f0f0f0;" parent="1" vertex="1">
          <mxGeometry x="220" y="1169" width="230" height="160" as="geometry" />
        </mxCell>
        <mxCell id="Yrk2esqF26IQwSNQLnqM-38" value="&lt;h5 style=&quot;font-size: 22px;&quot;&gt;&lt;font style=&quot;font-size: 22px;&quot;&gt;&lt;span style=&quot;font-size: 22px;&quot;&gt;ConvTranspose&lt;/span&gt;&lt;/font&gt;&lt;/h5&gt;" style="rounded=0;whiteSpace=wrap;html=1;fillColor=#ffe6cc;strokeColor=#d79b00;fontFamily=Times New Roman;fontSize=22;" parent="1" vertex="1">
          <mxGeometry x="240" y="1179" width="190" height="40" as="geometry" />
        </mxCell>
        <mxCell id="Yrk2esqF26IQwSNQLnqM-39" value="&lt;h5 style=&quot;font-size: 22px;&quot;&gt;&lt;font style=&quot;font-size: 22px;&quot;&gt;IntanceNorm&lt;/font&gt;&lt;/h5&gt;" style="rounded=0;whiteSpace=wrap;html=1;fillColor=#C0A878;fontFamily=Times New Roman;fontSize=22;" parent="1" vertex="1">
          <mxGeometry x="240" y="1229" width="190" height="40" as="geometry" />
        </mxCell>
        <mxCell id="Yrk2esqF26IQwSNQLnqM-40" value="&lt;font style=&quot;font-size: 22px;&quot;&gt;&lt;b style=&quot;font-size: 22px;&quot;&gt;Relu&lt;/b&gt;&lt;/font&gt;" style="rounded=0;whiteSpace=wrap;html=1;fillColor=#767676;fontFamily=Times New Roman;fontSize=22;" parent="1" vertex="1">
          <mxGeometry x="240" y="1279" width="190" height="40" as="geometry" />
        </mxCell>
        <mxCell id="Yrk2esqF26IQwSNQLnqM-41" value="" style="rounded=0;whiteSpace=wrap;html=1;fontFamily=Times New Roman;fontSize=22;fillColor=#f0f0f0;" parent="1" vertex="1">
          <mxGeometry x="220" y="1339" width="230" height="100" as="geometry" />
        </mxCell>
        <mxCell id="Yrk2esqF26IQwSNQLnqM-42" value="" style="rounded=0;whiteSpace=wrap;html=1;fillColor=#C0A878;fontFamily=Times New Roman;fontSize=22;" parent="1" vertex="1">
          <mxGeometry x="240" y="1379" width="190" height="15.5" as="geometry" />
        </mxCell>
        <mxCell id="Yrk2esqF26IQwSNQLnqM-43" value="" style="rounded=0;whiteSpace=wrap;html=1;fillColor=#483B3F;fontFamily=Times New Roman;fontSize=22;" parent="1" vertex="1">
          <mxGeometry x="240" y="1349" width="190" height="15.5" as="geometry" />
        </mxCell>
        <mxCell id="Yrk2esqF26IQwSNQLnqM-44" value="" style="rounded=0;whiteSpace=wrap;html=1;fillColor=#767676;fontFamily=Times New Roman;fontSize=22;" parent="1" vertex="1">
          <mxGeometry x="240" y="1409" width="190" height="15.5" as="geometry" />
        </mxCell>
        <mxCell id="Yrk2esqF26IQwSNQLnqM-45" value="&lt;h5 style=&quot;font-size: 22px;&quot;&gt;&lt;font style=&quot;font-size: 22px;&quot;&gt;&lt;span style=&quot;font-size: 22px;&quot;&gt;Conv&lt;/span&gt;&lt;/font&gt;&lt;/h5&gt;" style="rounded=0;whiteSpace=wrap;html=1;fillColor=#fff2cc;strokeColor=#d6b656;fontFamily=Times New Roman;fontSize=22;" parent="1" vertex="1">
          <mxGeometry x="240" y="1449" width="190" height="40" as="geometry" />
        </mxCell>
        <mxCell id="Yrk2esqF26IQwSNQLnqM-46" value="&lt;h5 style=&quot;font-size: 22px;&quot;&gt;&lt;font style=&quot;font-size: 22px;&quot;&gt;tanh&lt;/font&gt;&lt;/h5&gt;" style="rounded=0;whiteSpace=wrap;html=1;fillColor=#dae8fc;strokeColor=#6c8ebf;fontFamily=Times New Roman;fontSize=22;" parent="1" vertex="1">
          <mxGeometry x="240" y="1499" width="190" height="40" as="geometry" />
        </mxCell>
        <mxCell id="Yrk2esqF26IQwSNQLnqM-47" value="&lt;h5 style=&quot;font-size: 22px;&quot;&gt;&lt;font style=&quot;font-size: 22px;&quot;&gt;Output&lt;/font&gt;&lt;/h5&gt;" style="rounded=0;whiteSpace=wrap;html=1;fontFamily=Times New Roman;fontSize=22;" parent="1" vertex="1">
          <mxGeometry x="240" y="1599" width="190" height="40" as="geometry" />
        </mxCell>
        <mxCell id="Yrk2esqF26IQwSNQLnqM-49" value="" style="endArrow=classic;html=1;rounded=0;fontFamily=Times New Roman;fontSize=22;entryX=1;entryY=0.5;entryDx=0;entryDy=0;" parent="1" target="Yrk2esqF26IQwSNQLnqM-50" edge="1">
          <mxGeometry width="50" height="50" relative="1" as="geometry">
            <mxPoint x="335" y="165" as="sourcePoint" />
            <mxPoint x="540" y="1600" as="targetPoint" />
            <Array as="points">
              <mxPoint x="140" y="160" />
              <mxPoint x="140" y="1569" />
            </Array>
          </mxGeometry>
        </mxCell>
        <mxCell id="Yrk2esqF26IQwSNQLnqM-50" value="" style="shape=orEllipse;perimeter=ellipsePerimeter;whiteSpace=wrap;html=1;backgroundOutline=1;fontFamily=Times New Roman;fontSize=22;" parent="1" vertex="1">
          <mxGeometry x="315" y="1549" width="40" height="40" as="geometry" />
        </mxCell>
        <mxCell id="Yrk2esqF26IQwSNQLnqM-53" value="" style="endArrow=classic;html=1;rounded=0;fontFamily=Times New Roman;fontSize=22;entryX=0;entryY=0.5;entryDx=0;entryDy=0;" parent="1" target="Yrk2esqF26IQwSNQLnqM-22" edge="1">
          <mxGeometry width="50" height="50" relative="1" as="geometry">
            <mxPoint x="335" y="595" as="sourcePoint" />
            <mxPoint x="200" y="880" as="targetPoint" />
            <Array as="points">
              <mxPoint x="200" y="595" />
              <mxPoint x="200" y="880" />
            </Array>
          </mxGeometry>
        </mxCell>
        <mxCell id="Yrk2esqF26IQwSNQLnqM-55" value="" style="endArrow=classic;html=1;rounded=0;fontFamily=Times New Roman;fontSize=22;entryX=0;entryY=0.5;entryDx=0;entryDy=0;" parent="1" target="Yrk2esqF26IQwSNQLnqM-36" edge="1">
          <mxGeometry width="50" height="50" relative="1" as="geometry">
            <mxPoint x="335" y="940" as="sourcePoint" />
            <mxPoint x="200" y="1140" as="targetPoint" />
            <Array as="points">
              <mxPoint x="200" y="940" />
              <mxPoint x="200" y="1130" />
            </Array>
          </mxGeometry>
        </mxCell>
        <mxCell id="sIcnk5ah8OfkOmpLRG5N-1" value="" style="shape=curlyBracket;whiteSpace=wrap;html=1;rounded=1;fontFamily=Times New Roman;fontSize=22;size=0.30000000000000115;rotation=-180;" vertex="1" parent="1">
          <mxGeometry x="440" y="600" width="70" height="560" as="geometry" />
        </mxCell>
        <mxCell id="sIcnk5ah8OfkOmpLRG5N-2" value="&lt;h6 style=&quot;font-size: 22px;&quot;&gt;&lt;span style=&quot;font-size: 22px;&quot;&gt;ResBlocks&lt;/span&gt;&lt;/h6&gt;" style="text;html=1;strokeColor=none;fillColor=none;align=center;verticalAlign=middle;whiteSpace=wrap;rounded=0;fontFamily=Times New Roman;fontSize=22;direction=east;horizontal=0;rotation=-180;" vertex="1" parent="1">
          <mxGeometry x="520" y="835" width="20" height="90" as="geometry" />
        </mxCell>
      </root>
    </mxGraphModel>
  </diagram>
</mxfile>
